<?xml version="1.0" standalone="no"?>
<!DOCTYPE svg PUBLIC "-//W3C//DTD SVG 20010904//EN"
 "http://www.w3.org/TR/2001/REC-SVG-20010904/DTD/svg10.dtd">
<svg version="1.0" xmlns="http://www.w3.org/2000/svg"
 viewBox="0 0 900.000000 362.000000"
 preserveAspectRatio="xMidYMid meet">

<g transform="translate(0.000000,362.000000) scale(0.100000,-0.100000)"
fill="#000000" stroke="none">
<path d="M4204 2646 l-31 -14 -7 -298 c-5 -182 -12 -304 -18 -311 -13 -16 -42
-17 -32 -1 13 20 14 140 1 162 -6 12 -12 33 -13 48 -2 41 -12 60 -26 52 -8 -5
-9 -2 -5 9 3 10 3 17 -2 17 -5 0 -11 10 -14 22 -4 12 -9 19 -13 15 -4 -4 -13
6 -20 23 -7 17 -19 29 -26 28 -7 -2 -17 7 -23 20 -5 12 -17 22 -26 22 -9 0
-19 7 -23 15 -3 8 -12 12 -21 9 -8 -4 -17 0 -21 9 -3 9 -12 13 -20 10 -8 -3
-14 0 -14 6 0 6 -7 11 -15 11 -8 0 -15 5 -15 10 0 6 -5 10 -11 10 -6 0 -22 9
-36 20 -32 25 -43 18 -43 -25 0 -19 -4 -36 -9 -39 -5 -3 -12 -18 -16 -33 -3
-16 -12 -35 -19 -43 -21 -25 -36 -79 -24 -86 7 -4 6 -9 -3 -15 -11 -6 -9 -16
10 -50 17 -30 20 -43 12 -49 -9 -5 -7 -20 7 -56 24 -60 61 -124 72 -124 5 0
12 -9 15 -20 3 -11 11 -20 16 -20 6 0 35 -27 65 -60 30 -32 64 -62 74 -65 10
-3 35 1 54 9 26 11 36 12 36 3 1 -35 -3 -536 -5 -622 l-2 -100 52 -50 c28 -27
60 -67 71 -88 l19 -38 6 28 c4 15 8 217 9 448 2 410 8 576 22 591 4 4 31 12
60 19 l53 11 3 297 3 297 -38 0 c-21 -1 -52 -7 -69 -14z"/>
<path d="M1186 2298 c-9 -12 -16 -29 -16 -37 0 -28 -24 -81 -37 -81 -8 0 -16
-6 -19 -14 -3 -8 -13 -12 -24 -9 -14 4 -21 -2 -26 -21 -7 -28 -24 -36 -24 -10
0 25 -24 11 -40 -25 -9 -17 -19 -29 -23 -25 -3 4 -9 -1 -12 -10 -3 -9 -7 -23
-10 -32 -4 -13 -8 -14 -20 -4 -19 16 -45 -3 -45 -31 0 -11 -10 -23 -24 -29
-19 -7 -25 -18 -31 -65 -4 -38 -3 -61 5 -71 10 -11 10 -14 -2 -14 -8 0 -19 5
-26 12 -17 17 -29 2 -45 -53 -8 -26 -19 -44 -27 -44 -10 0 -16 -12 -18 -32 -2
-18 -7 -33 -13 -33 -5 0 -9 3 -9 8 0 9 -62 37 -74 34 -5 -2 -12 2 -16 7 -3 6
-19 12 -36 14 -16 2 -36 7 -44 12 -9 5 -15 4 -18 -4 -3 -9 -10 -8 -28 4 -13 8
-24 11 -24 6 0 -5 -32 6 -71 25 -78 38 -129 52 -129 36 0 -5 12 -18 27 -27 70
-46 141 -145 104 -145 -14 0 -4 -117 13 -150 9 -18 16 -38 16 -44 0 -6 13 -26
30 -44 17 -18 30 -37 30 -42 0 -5 10 -15 22 -21 13 -7 27 -18 31 -25 4 -8 18
-14 31 -14 12 0 36 -13 52 -29 17 -16 43 -33 60 -37 36 -8 54 -22 54 -41 0
-10 -4 -11 -19 -3 -13 6 -22 7 -26 0 -3 -5 -12 -7 -20 -4 -13 6 -188 -59 -212
-78 -7 -6 -10 -15 -6 -21 4 -6 0 -8 -10 -4 -10 3 -17 2 -17 -2 0 -5 -14 -14
-31 -20 -17 -6 -29 -16 -27 -23 3 -7 -13 -28 -34 -47 -25 -23 -34 -37 -27 -42
8 -5 3 -16 -15 -35 -26 -29 -26 -29 -4 -37 21 -7 21 -8 -7 -37 -23 -24 -25
-30 -12 -30 23 0 21 -13 -3 -35 -15 -14 -17 -21 -9 -31 8 -10 7 -18 -5 -29
-19 -19 -20 -31 -5 -40 7 -5 5 -13 -6 -25 -11 -12 -13 -20 -5 -25 7 -4 0 -21
-20 -48 -16 -22 -30 -45 -30 -50 0 -5 22 -6 50 -2 36 5 50 4 50 -5 0 -7 7 -10
15 -6 8 3 15 1 15 -4 0 -13 37 -13 45 0 3 6 11 10 17 10 6 0 5 -7 -3 -17 -13
-15 -10 -16 34 -11 44 5 47 4 41 -15 -6 -18 -3 -19 31 -13 20 4 44 10 52 13
12 5 15 2 10 -10 -8 -22 8 -22 80 -1 30 9 57 22 60 30 9 25 18 15 20 -24 11
-166 108 -323 240 -388 107 -52 319 -68 406 -30 l32 14 -40 2 c-22 1 -53 6
-70 11 -24 7 -20 7 18 4 61 -6 194 14 211 31 8 7 16 10 19 7 9 -9 98 47 92 57
-3 6 0 7 8 5 7 -3 22 4 33 16 12 14 13 19 4 14 -9 -5 -8 0 4 13 23 27 27 28
19 4 -3 -9 8 1 26 22 17 22 29 46 26 53 -2 8 0 11 5 8 6 -4 22 20 37 52 36 79
44 229 16 318 -10 33 -24 60 -30 60 -6 0 -15 4 -20 9 -5 5 -3 6 5 2 22 -13 13
8 -21 47 -18 21 -36 35 -40 31 -13 -13 -7 -26 8 -20 12 4 13 2 6 -12 -6 -11
-5 -21 4 -29 7 -6 14 -10 16 -8 2 2 5 -6 5 -18 1 -12 10 -42 20 -67 13 -33 18
-73 18 -145 1 -95 -1 -103 -36 -175 -45 -93 -117 -164 -215 -213 -153 -77
-328 -51 -462 69 -95 85 -137 196 -129 340 5 105 47 195 124 271 54 52 179
123 218 123 11 0 28 5 36 10 20 13 -53 1 -104 -17 -47 -16 -64 -17 -49 -2 15
15 4 56 -18 62 -10 3 -19 14 -19 24 0 11 -9 29 -19 40 -19 20 -49 100 -40 106
2 2 27 18 54 35 64 41 93 66 97 83 2 7 31 35 65 61 72 56 79 64 63 83 -9 10
-7 15 7 19 19 6 49 66 33 66 -4 0 5 14 21 31 32 35 38 59 13 59 -12 0 -14 3
-6 13 15 18 41 97 32 97 -11 0 -9 49 1 56 5 3 7 10 3 15 -3 5 -10 7 -15 4 -5
-4 -9 10 -9 31 0 30 -3 36 -19 31 -14 -3 -18 2 -19 24 -1 35 -10 51 -23 43 -6
-3 -7 4 -3 20 3 15 1 32 -6 41 -6 8 -9 23 -5 34 3 10 1 22 -4 26 -6 3 -8 19
-4 35 6 30 -4 39 -23 20 -7 -7 -9 1 -8 26 3 29 -1 37 -17 41 -14 4 -19 12 -16
24 3 10 1 19 -5 21 -5 2 -10 18 -10 36 -1 17 -5 32 -10 32 -4 0 -8 9 -8 20 0
26 -15 25 -34 -2z m-377 -1104 c10 -9 -35 -3 -49 6 -11 8 -7 9 15 4 17 -4 32
-8 34 -10z m291 -279 c-7 -8 -17 -15 -23 -15 -6 0 -2 7 9 15 25 19 30 19 14 0z
m-60 -48 c0 -2 -15 -16 -32 -33 l-33 -29 29 33 c28 30 36 37 36 29z m15 -682
c27 -25 45 -45 39 -45 -5 0 -32 20 -59 45 -28 24 -45 44 -40 44 6 0 32 -20 60
-44z m115 -70 c14 -8 21 -14 15 -14 -5 0 -21 6 -35 14 -14 8 -20 14 -15 14 6
0 21 -6 35 -14z m57 -21 c-3 -3 -12 -4 -19 -1 -8 3 -5 6 6 6 11 1 17 -2 13 -5z"/>
<path d="M5775 2173 c5 -16 9 -44 10 -64 1 -20 5 -42 9 -48 4 -6 2 -11 -4 -11
-7 0 -9 -7 -6 -17 4 -9 1 -20 -6 -24 -9 -6 -7 -13 7 -30 14 -15 16 -23 8 -26
-14 -5 20 -67 48 -87 10 -7 16 -16 12 -19 -3 -4 0 -7 8 -7 8 -1 30 -14 49 -30
19 -17 43 -30 54 -30 17 0 83 -19 95 -27 2 -2 -4 -12 -14 -23 -10 -11 -13 -20
-7 -20 7 0 12 5 12 11 0 6 8 8 19 4 12 -3 21 0 25 10 3 9 29 26 57 39 29 14
57 35 64 50 15 28 13 102 -3 132 -9 17 -23 50 -26 64 -5 19 -28 50 -35 46 -4
-3 -13 6 -20 20 -8 19 -16 24 -30 19 -14 -4 -21 0 -26 15 -4 12 -12 19 -20 16
-8 -3 -19 2 -26 10 -7 8 -19 12 -27 9 -8 -3 -21 0 -30 7 -12 11 -16 11 -20 0
-3 -10 -7 -10 -18 -1 -8 7 -17 9 -21 6 -3 -4 -12 -2 -19 4 -8 7 -14 7 -19 -1
-5 -8 -11 -8 -21 1 -8 6 -14 8 -14 5 0 -4 -10 0 -22 8 -36 25 -51 21 -43 -11z"/>
<path d="M1900 2095 c-16 -20 -5 -33 35 -41 18 -3 36 -12 38 -19 3 -6 8 -53
12 -104 4 -50 11 -91 16 -91 20 0 39 -67 39 -138 l0 -74 31 6 c17 3 44 6 60 6
l29 0 0 95 c0 57 -4 95 -10 95 -5 0 -10 9 -10 20 0 11 -6 23 -14 26 -10 4 -18
38 -26 108 l-13 103 -62 12 c-82 15 -110 14 -125 -4z"/>
<path d="M2518 2000 c-55 -10 -162 -40 -157 -45 2 -1 33 4 69 11 44 10 112 14
210 12 139 -3 177 3 165 23 -7 11 -220 10 -287 -1z"/>
<path d="M6500 1905 c-14 -8 -49 -19 -77 -25 -29 -6 -53 -15 -53 -19 0 -5 -20
-19 -45 -32 -25 -13 -45 -28 -45 -34 0 -5 -11 -23 -25 -39 -14 -16 -25 -36
-25 -44 0 -9 -6 -12 -15 -8 -10 3 -18 -1 -21 -12 -3 -9 -10 -27 -16 -38 -5
-12 -11 -34 -11 -50 -1 -16 -6 -32 -11 -36 -17 -12 -12 -131 7 -170 20 -43 43
-58 86 -58 17 0 31 -4 31 -10 0 -5 5 -10 10 -10 6 0 10 9 10 21 0 18 4 20 26
15 14 -4 40 -2 57 3 18 5 50 14 72 20 22 5 61 15 88 22 27 7 47 17 47 25 0 8
7 14 15 14 8 0 15 6 15 14 0 8 8 17 18 21 22 7 82 62 82 75 0 5 5 10 10 10 6
0 10 7 10 16 0 9 -5 12 -11 8 -13 -8 31 57 45 67 5 4 6 11 2 17 -3 5 0 12 8
15 10 4 13 21 11 59 -2 33 2 59 10 68 8 8 14 17 14 20 0 3 4 18 10 33 15 40
15 40 -21 32 -41 -9 -92 -7 -96 4 -1 4 -16 5 -32 3 -18 -2 -30 0 -30 7 0 7 -8
8 -26 1 -32 -13 -37 -12 -29 0 8 14 -18 13 -32 -1 -8 -8 -13 -8 -17 0 -9 14
-15 13 -46 -4z"/>
<path d="M3498 1883 c7 -3 16 -2 19 1 4 3 -2 6 -13 5 -11 0 -14 -3 -6 -6z"/>
<path d="M3538 1873 c7 -3 16 -2 19 1 4 3 -2 6 -13 5 -11 0 -14 -3 -6 -6z"/>
<path d="M3170 1828 c-129 -74 -210 -213 -210 -363 0 -110 22 -166 95 -240
111 -112 249 -155 395 -124 58 12 68 29 13 22 -21 -2 -56 0 -78 5 -30 8 -34
10 -15 12 18 1 8 6 -31 19 -72 23 -138 69 -186 129 -21 26 -44 53 -50 60 -7 7
-13 22 -13 32 0 10 -4 22 -10 25 -5 3 -10 25 -10 48 0 136 51 271 126 333 37
32 48 53 33 68 -3 3 -29 -9 -59 -26z m11 -40 c-27 -24 -53 -51 -56 -61 -4 -10
-9 -16 -12 -14 -15 16 75 117 104 117 8 0 -9 -19 -36 -42z"/>
<path d="M3787 1619 c5 -19 8 -75 8 -126 -1 -51 1 -91 3 -89 2 2 7 31 12 65 8
57 -6 160 -24 178 -3 4 -3 -9 1 -28z"/>
<path d="M1997 1599 c-66 -15 -77 -26 -77 -70 0 -32 -4 -41 -23 -48 -23 -9
-24 -16 -30 -123 -11 -190 -10 -203 16 -215 13 -6 48 -8 83 -4 55 6 59 8 62
33 3 21 -1 27 -20 30 l-23 3 4 155 c1 85 5 158 8 163 2 4 13 7 24 7 16 0 19 7
19 40 0 22 -1 40 -2 39 -2 -1 -20 -5 -41 -10z"/>
<path d="M5178 1594 c-16 -8 -29 -16 -30 -17 -16 -22 -24 -1309 -9 -1497 l6
-75 49 0 49 0 0 600 c0 330 3 663 6 740 3 77 4 168 2 203 -3 56 -6 62 -25 62
-11 -1 -33 -8 -48 -16z"/>
<path d="M2046 1192 c-9 -16 6 -52 22 -52 12 0 13 3 5 11 -6 6 -9 17 -7 24 6
15 -12 30 -20 17z"/>
<path d="M5815 1180 c3 -5 11 -10 16 -10 6 0 7 5 4 10 -3 6 -11 10 -16 10 -6
0 -7 -4 -4 -10z"/>
<path d="M5440 1170 c0 -6 -13 -10 -30 -10 -16 0 -30 -5 -30 -11 0 -6 8 -8 19
-4 16 5 20 0 23 -22 2 -22 9 -29 31 -31 23 -3 30 1 34 19 6 22 7 22 14 3 7
-16 8 -17 8 -1 1 11 9 17 24 17 18 0 19 2 7 10 -8 5 -30 10 -49 10 -53 0 -31
9 27 11 28 1 49 5 47 9 -7 12 -125 11 -125 0z"/>
<path d="M5656 1165 c18 -14 18 -14 -6 -15 -23 -1 -24 -2 -7 -14 18 -14 7 -33
-12 -21 -5 3 -12 1 -16 -5 -3 -5 3 -10 13 -10 20 0 20 -2 24 -85 1 -19 5 -35
10 -35 4 0 8 -11 8 -25 0 -16 6 -25 15 -25 12 0 15 15 16 73 l2 72 7 -55 c4
-30 11 -226 14 -435 4 -209 9 -426 12 -482 5 -91 8 -103 24 -103 27 0 29 17
25 200 -2 91 -4 341 -4 556 l-1 390 -35 17 c-20 9 -52 17 -72 17 -35 0 -36 -1
-17 -15z m51 -67 c-3 -8 -6 -5 -6 6 -1 11 2 17 5 13 3 -3 4 -12 1 -19z"/>
<path d="M2396 1155 c-3 -9 0 -15 9 -15 16 0 20 16 6 24 -5 3 -11 -1 -15 -9z"/>
<path d="M5262 1153 c-5 -10 -6 -45 -2 -78 5 -41 8 -49 9 -24 0 22 9 43 21 54
27 24 27 65 0 65 -10 0 -23 -8 -28 -17z"/>
<path d="M2040 1120 c-8 -4 -45 -11 -82 -15 l-68 -7 0 -38 c0 -21 -4 -42 -10
-45 -6 -4 -10 11 -10 39 0 44 0 45 -28 37 -60 -18 -89 -39 -96 -72 -13 -65 -7
-159 13 -198 30 -58 61 -192 61 -263 0 -78 -17 -143 -60 -230 -26 -54 -30 -70
-21 -82 8 -10 9 -16 1 -21 -6 -4 -10 -50 -10 -116 l0 -109 69 0 69 0 4 153 c2
83 4 286 3 449 0 164 3 298 8 298 4 0 8 -89 8 -197 2 -248 2 -256 17 -261 17
-5 15 -42 -3 -42 -11 0 -15 -11 -15 -40 0 -29 4 -40 15 -40 8 0 15 -9 15 -20
0 -25 -17 -26 -23 -2 -3 9 -5 -8 -4 -38 0 -30 2 -43 4 -27 2 15 8 27 13 27 10
0 5 -44 -12 -98 -15 -50 -1 -140 24 -153 11 -6 22 -9 24 -6 8 8 20 251 14 287
-8 53 8 621 19 653 8 22 6 37 -7 64 -15 31 -15 37 -1 61 10 19 23 27 42 27 15
1 32 6 39 13 15 15 7 23 -12 12z m-110 -755 c0 -16 -6 -25 -15 -25 -16 0 -19
9 -9 34 9 25 24 19 24 -9z m-140 -78 c0 -2 -10 -12 -21 -23 -22 -19 -22 -19
-8 4 12 19 29 30 29 19z"/>
<path d="M2719 1113 c-11 -13 -15 -117 -17 -565 l-2 -548 30 0 30 0 0 565 c0
473 -2 565 -14 565 -7 0 -20 -7 -27 -17z"/>
<path d="M2440 1099 c0 -5 5 -7 10 -4 6 3 10 8 10 11 0 2 -4 4 -10 4 -5 0 -10
-5 -10 -11z"/>
<path d="M2472 1038 c-2 -44 -10 -84 -20 -101 -12 -20 -14 -30 -6 -35 6 -4 15
-21 18 -38 l7 -31 29 27 c26 24 30 36 32 87 2 58 2 58 5 9 3 -31 11 -56 25
-70 l21 -21 -7 114 c-3 63 -7 115 -8 117 -2 1 -23 5 -48 9 l-45 6 -3 -73z"/>
<path d="M3557 1049 c-42 -37 -67 -71 -94 -127 -35 -73 -37 -82 -37 -172 0
-86 3 -101 32 -161 75 -156 244 -250 401 -223 45 8 45 8 -36 15 -267 21 -430
285 -331 535 15 37 44 80 82 121 70 76 62 82 -17 12z"/>
<path d="M2370 1080 c-9 -5 -13 -22 -12 -45 2 -21 -3 -44 -10 -52 -10 -13 -8
-19 11 -34 29 -24 63 -24 84 -1 30 33 16 122 -19 122 -8 0 -12 5 -9 10 8 13
-25 13 -45 0z"/>
<path d="M2110 1053 c0 -22 2 -25 10 -13 13 20 13 40 0 40 -5 0 -10 -12 -10
-27z"/>
<path d="M2000 1060 c-13 -8 -12 -10 3 -10 9 0 17 -7 17 -15 0 -8 4 -15 9 -15
9 0 21 24 21 41 0 12 -31 11 -50 -1z"/>
<path d="M2060 1049 c0 -5 5 -7 10 -4 6 3 10 8 10 11 0 2 -4 4 -10 4 -5 0 -10
-5 -10 -11z"/>
<path d="M5465 1050 c-3 -5 -1 -10 4 -10 6 0 11 5 11 10 0 6 -2 10 -4 10 -3 0
-8 -4 -11 -10z"/>
<path d="M2049 983 c-1 -5 -1 -12 0 -17 1 -4 -4 -15 -11 -23 -10 -13 -9 -15 7
-12 11 3 21 13 24 24 2 11 8 23 15 27 6 5 2 8 -11 8 -13 0 -24 -3 -24 -7z"/>
<path d="M2090 955 c-7 -20 -7 -31 1 -41 9 -11 9 -14 0 -14 -13 0 -14 -153 0
-380 7 -129 18 -420 19 -487 0 -30 3 -33 31 -33 l31 0 -6 323 c-3 177 -9 388
-12 469 -7 137 -9 149 -30 169 l-23 22 -11 -28z"/>
<path d="M6955 944 c-27 -14 -57 -32 -65 -41 -8 -9 -9 -13 -2 -9 7 4 12 1 12
-8 0 -26 21 -29 38 -5 9 13 29 37 45 52 17 15 28 29 26 31 -2 2 -26 -7 -54
-20z"/>
<path d="M7676 951 c-9 -10 -16 -22 -15 -27 5 -28 -3 -64 -13 -61 -7 1 -14 -8
-16 -21 -3 -19 -6 -21 -18 -11 -12 9 -14 6 -14 -20 0 -32 -8 -39 -27 -20 -19
19 -32 -54 -26 -149 6 -99 -11 -187 -52 -260 -31 -55 -31 -64 0 -98 14 -15 25
-32 25 -39 0 -14 29 -51 93 -116 26 -26 47 -50 47 -52 0 -3 15 -21 33 -41 l33
-36 585 0 c321 0 578 4 571 8 -7 5 -10 16 -6 25 4 13 1 17 -15 17 -12 0 -19 5
-16 12 6 17 -86 61 -125 61 -17 0 -30 4 -30 9 0 4 5 8 12 8 31 0 -13 22 -46
23 -20 1 -38 7 -41 15 -3 7 -15 12 -27 11 -13 -2 -33 3 -46 9 -12 7 -27 10
-32 7 -5 -3 -11 -1 -15 5 -3 6 1 13 9 16 9 3 16 12 16 19 0 7 6 18 14 24 8 7
17 27 20 46 4 20 16 39 28 46 14 8 17 14 9 22 -8 8 -6 16 6 29 15 17 15 18 -2
18 -16 0 -16 3 6 26 l24 26 -22 -6 c-23 -7 -32 7 -13 19 6 3 10 11 10 16 0 6
-4 8 -9 5 -10 -6 -8 45 2 62 4 5 1 12 -5 15 -9 3 -7 10 7 21 13 12 16 19 8 22
-9 4 -6 15 8 41 11 19 18 38 15 41 -3 3 -2 10 3 16 10 14 22 46 16 46 -3 0
-28 -24 -57 -54 -30 -31 -66 -58 -83 -62 -44 -10 -182 -85 -216 -116 -17 -15
-32 -27 -35 -27 -2 0 -23 -22 -46 -48 -37 -44 -59 -60 -81 -62 -4 -1 -4 7 1
17 13 25 23 87 16 95 -4 4 -13 2 -20 -4 -10 -8 -12 0 -9 37 2 31 -2 52 -11 61
-8 8 -14 28 -14 45 0 25 -2 28 -14 19 -12 -10 -17 -8 -25 8 -6 11 -11 27 -11
35 0 18 -16 21 -25 6 -9 -14 -35 7 -35 26 0 17 -26 19 -36 3 -4 -7 -13 2 -21
22 -13 31 -15 33 -27 16 -12 -16 -14 -15 -26 13 -13 31 -24 37 -36 19 -4 -7
-16 -1 -34 16 -24 23 -28 24 -34 9 -6 -16 -8 -15 -27 5 -11 11 -18 25 -15 30
3 4 -3 24 -13 44 -18 35 -19 36 -35 18z"/>
<path d="M2314 925 c-3 -8 -1 -35 4 -60 5 -25 8 -54 7 -63 -11 -52 -13 -92 -5
-87 15 9 20 -12 6 -24 -11 -9 -14 -39 -13 -126 1 -62 -1 -108 -5 -102 -13 20
-13 -215 -2 -380 l6 -81 54 0 c30 0 55 5 56 9 0 5 1 15 2 22 1 6 7 18 14 25 7
9 12 44 12 98 0 49 4 84 10 84 6 0 10 -47 10 -120 l0 -120 25 0 25 0 1 373 c0
204 3 396 5 425 3 40 1 53 -9 49 -6 -2 -12 -10 -12 -18 0 -8 -8 -13 -18 -13
-16 2 -17 -15 -17 -199 0 -197 -7 -249 -16 -126 -3 34 -9 70 -15 80 -12 23
-12 42 1 34 6 -4 10 33 10 105 0 72 -4 109 -10 105 -6 -4 -10 5 -10 20 0 17 4
24 11 19 8 -4 9 1 4 17 -9 29 -2 23 -52 48 -50 25 -72 27 -79 6z m153 -537
c-3 -8 -6 -5 -6 6 -1 11 2 17 5 13 3 -3 4 -12 1 -19z m-1 -83 c0 -30 -5 -45
-13 -45 -17 0 -17 62 -1 78 7 7 13 12 14 12 0 0 1 -20 0 -45z"/>
<path d="M5683 861 c1 -23 5 -41 10 -41 11 0 9 68 -3 75 -6 4 -9 -10 -7 -34z"/>
<path d="M6324 815 c-93 -93 -134 -216 -113 -343 31 -198 190 -333 391 -332
47 1 82 6 98 16 l25 15 -32 -6 c-39 -8 -136 16 -200 49 -54 27 -127 96 -150
141 -14 27 -13 26 21 -9 44 -49 46 -39 5 22 -18 26 -38 64 -45 86 -17 46 -17
49 -3 40 6 -3 3 8 -6 26 -12 24 -15 42 -9 69 4 20 7 55 7 78 -1 40 44 149 78
190 9 9 8 13 0 13 -7 0 -37 -25 -67 -55z"/>
<path d="M2541 834 c0 -11 3 -14 6 -6 3 7 2 16 -1 19 -3 4 -6 -2 -5 -13z"/>
<path d="M6895 840 c3 -5 8 -10 11 -10 2 0 4 5 4 10 0 6 -5 10 -11 10 -5 0 -7
-4 -4 -10z"/>
<path d="M6407 813 c-4 -3 -7 -11 -7 -17 0 -6 5 -5 12 2 6 6 9 14 7 17 -3 3
-9 2 -12 -2z"/>
<path d="M5680 794 c0 -8 5 -12 10 -9 6 4 8 11 5 16 -9 14 -15 11 -15 -7z"/>
<path d="M6416 753 c-6 -14 -5 -15 5 -6 7 7 10 15 7 18 -3 3 -9 -2 -12 -12z"/>
<path d="M5690 698 c-3 -26 -1 -43 3 -39 5 5 7 26 5 47 l-3 39 -5 -47z"/>
<path d="M5687 571 c-4 -32 -2 -109 3 -172 6 -62 7 -115 2 -118 -14 -9 -9 -94
6 -99 10 -3 11 42 8 218 -2 122 -6 224 -9 226 -2 2 -7 -22 -10 -55z"/>
<path d="M4139 528 c-17 -33 -70 -88 -101 -104 l-28 -15 0 -204 0 -205 75 0
75 0 0 275 c0 151 -2 275 -5 275 -2 0 -9 -10 -16 -22z"/>
<path d="M6390 393 c0 -15 71 -105 78 -99 3 4 -2 12 -10 19 -9 6 -28 30 -42
51 -14 21 -26 34 -26 29z"/>
<path d="M6915 300 c-16 -16 -26 -32 -24 -35 3 -2 21 11 39 30 19 19 29 35 24
35 -6 0 -23 -13 -39 -30z"/>
<path d="M6927 270 c-30 -30 -35 -39 -24 -48 19 -16 119 -41 194 -48 35 -4 63
-11 63 -17 0 -5 -8 -7 -18 -5 -11 3 -30 -1 -43 -8 -13 -7 -34 -13 -47 -14 -18
0 -22 -4 -17 -19 3 -10 11 -38 18 -62 l13 -44 239 -2 c132 -1 234 1 228 4 -7
2 -13 10 -13 16 -1 15 -54 73 -107 115 -42 33 -73 41 -73 20 0 -8 -3 -9 -8 -3
-11 16 -62 36 -62 25 0 -8 -15 -8 -50 0 -3 0 11 8 30 17 l35 17 -106 6 c-109
6 -135 16 -183 69 -11 12 -22 20 -25 20 -3 -1 -23 -19 -44 -39z m273 -100 c0
-5 -4 -10 -9 -10 -6 0 -13 5 -16 10 -3 6 1 10 9 10 9 0 16 -4 16 -10z"/>
<path d="M2563 255 c0 -22 2 -30 4 -17 2 12 2 30 0 40 -3 9 -5 -1 -4 -23z"/>
<path d="M6520 256 c0 -3 9 -10 20 -16 11 -6 20 -8 20 -6 0 3 -9 10 -20 16
-11 6 -20 8 -20 6z"/>
<path d="M2563 120 c0 -25 2 -35 4 -22 2 12 2 32 0 45 -2 12 -4 2 -4 -23z"/>
<path d="M5684 89 c1 -16 6 -29 11 -30 16 0 18 30 2 46 -13 12 -14 10 -13 -16z"/>
<path d="M5690 30 c0 -5 5 -10 10 -10 6 0 10 5 10 10 0 6 -4 10 -10 10 -5 0
-10 -4 -10 -10z"/>
</g>
</svg>
