<?xml version="1.0" standalone="no"?>
<!DOCTYPE svg PUBLIC "-//W3C//DTD SVG 20010904//EN"
 "http://www.w3.org/TR/2001/REC-SVG-20010904/DTD/svg10.dtd">
<svg version="1.0" xmlns="http://www.w3.org/2000/svg"
 viewBox="0 0 500.000000 500.000000"
 preserveAspectRatio="xMidYMid meet">

<g transform="translate(0.000000,500.000000) scale(0.100000,-0.100000)"
fill="#000000" stroke="none">
<path d="M1544 3350 c-88 -27 -181 -123 -205 -213 -27 -100 18 -221 107 -290
77 -59 123 -68 295 -61 l146 7 18 54 18 54 110 -3 109 -3 20 -52 19 -53 114 0
114 0 3 107 3 106 80 -106 80 -106 228 -1 227 0 0 55 0 55 -100 0 -101 0 3 58
3 57 93 3 92 3 0 54 0 55 -95 0 -95 0 0 55 0 55 100 0 100 0 0 55 0 55 -165 0
-165 0 -2 -252 -3 -251 -74 87 c-40 48 -71 88 -70 89 2 2 17 9 32 17 49 24 71
67 75 140 4 81 -18 122 -81 150 -34 16 -65 20 -169 20 l-128 0 -2 -226 -3
-226 -90 226 -90 226 -61 0 -62 0 -87 -217 c-49 -120 -92 -222 -96 -227 -4 -4
-10 1 -13 12 -7 20 -9 20 -44 5 -50 -21 -153 -14 -189 13 -103 77 -92 222 22
282 39 20 132 21 171 1 l31 -16 27 55 c15 30 26 56 24 57 -2 1 -19 11 -38 21
-40 20 -186 29 -236 14z m961 -125 c49 -48 22 -110 -52 -121 l-43 -7 0 77 0
76 35 0 c25 0 44 -8 60 -25z m-440 -128 c14 -37 25 -70 25 -72 0 -3 -27 -5
-60 -5 l-60 0 21 53 c12 28 25 63 30 76 12 30 13 29 44 -52z"/>
<path d="M3288 3339 c-70 -36 -89 -127 -44 -205 l23 -41 -45 -34 c-65 -48 -87
-82 -85 -129 3 -62 28 -98 86 -126 76 -35 146 -33 226 7 l62 31 28 -26 c24
-23 35 -26 104 -26 42 0 77 4 77 8 0 4 -25 32 -55 62 l-55 54 40 41 40 41 -39
39 -40 38 -42 -37 -41 -38 -39 38 c-21 21 -39 39 -39 40 0 1 16 12 34 24 97
60 99 182 4 240 -45 27 -148 27 -200 -1z m152 -90 c16 -29 5 -63 -27 -84 -26
-17 -27 -17 -45 5 -21 25 -24 70 -6 88 20 20 66 15 78 -9z m-58 -266 c21 -20
38 -43 38 -50 0 -7 -19 -18 -41 -25 -78 -23 -127 34 -75 87 14 14 28 25 33 25
4 0 24 -17 45 -37z"/>
<path d="M2853 2402 l-53 -3 0 -172 c0 -239 -10 -267 -99 -267 -28 0 -46 6
-61 22 -19 20 -20 34 -20 220 l0 198 -65 0 -65 0 0 -212 c0 -186 3 -218 19
-254 30 -67 101 -104 195 -104 76 0 126 18 167 59 47 47 59 102 59 271 l0 130
50 0 50 0 0 -225 0 -225 65 0 65 0 0 225 0 225 68 0 67 0 63 -95 62 -95 0
-130 0 -130 65 0 65 0 0 126 0 126 105 154 106 154 -80 0 -79 0 -54 -85 c-29
-47 -56 -85 -59 -85 -3 0 -30 38 -60 85 l-54 85 -45 1 c-116 3 -431 4 -477 1z"/>
<path d="M1300 2120 l0 -280 133 0 c147 0 195 14 235 65 l22 28 0 -47 0 -46
204 0 205 0 19 53 20 52 109 3 110 3 18 -56 19 -55 68 0 c37 0 68 3 68 6 0 4
-102 260 -217 542 -3 8 -27 12 -67 12 l-61 0 -89 -225 -90 -225 -93 0 -93 0 0
60 0 60 96 0 95 0 -3 53 -3 52 -92 3 -93 3 0 54 0 55 95 0 95 0 0 55 0 55
-160 0 -160 0 0 -166 0 -167 -25 27 c-13 14 -36 31 -51 36 l-27 11 28 29 c58
61 41 171 -34 209 -34 18 -59 21 -161 21 l-120 0 0 -280z m201 170 c13 -7 19
-21 19 -44 0 -39 -14 -53 -58 -62 l-32 -6 0 61 c0 59 1 61 26 61 14 0 34 -5
45 -10z m780 -148 l27 -67 -55 -3 c-30 -2 -57 -1 -59 1 -3 2 7 37 22 76 15 39
29 69 33 66 3 -4 18 -37 32 -73z m-743 -88 c15 -10 22 -25 22 -49 0 -43 -29
-65 -87 -65 l-43 0 0 65 0 65 43 0 c23 0 53 -7 65 -16z"/>
</g>
</svg>
