<?xml version="1.0" standalone="no"?>
<!DOCTYPE svg PUBLIC "-//W3C//DTD SVG 20010904//EN"
 "http://www.w3.org/TR/2001/REC-SVG-20010904/DTD/svg10.dtd">
<svg version="1.0" xmlns="http://www.w3.org/2000/svg"
 viewBox="0 0 500.000000 500.000000"
 preserveAspectRatio="xMidYMid meet">

<g transform="translate(0.000000,500.000000) scale(0.100000,-0.100000)"
fill="#000000" stroke="none">
<path d="M2348 3634 c-57 -30 -75 -121 -40 -198 l18 -39 -44 -41 c-55 -50 -72
-83 -72 -138 0 -60 30 -105 87 -130 53 -23 119 -19 188 11 l41 18 44 -39 c46
-41 75 -46 94 -15 9 14 5 28 -17 69 l-28 50 25 27 c76 80 33 147 -56 86 l-36
-25 -34 48 c-19 26 -37 53 -42 59 -4 8 7 31 28 59 27 36 36 57 36 86 0 95
-108 158 -192 112z m91 -98 c10 -11 9 -21 -4 -46 -9 -17 -22 -29 -28 -27 -16
5 -32 51 -24 71 8 20 40 21 56 2z m-15 -277 c43 -58 40 -68 -23 -76 -54 -7
-75 9 -67 55 5 32 30 72 45 72 4 0 24 -23 45 -51z"/>
<path d="M1815 3626 c-116 -50 -187 -274 -139 -436 30 -101 122 -163 207 -139
53 14 107 64 107 99 0 45 -22 55 -83 40 -81 -19 -100 -13 -116 40 -26 80 9
239 56 257 19 7 33 -13 33 -50 0 -47 17 -67 55 -67 43 0 65 29 65 89 0 135
-84 211 -185 167z"/>
<path d="M2980 3603 c-67 -34 -69 -40 -69 -268 0 -152 8 -237 24 -253 3 -4 39
-7 78 -7 120 0 202 55 214 144 6 47 -18 103 -52 121 l-24 13 30 35 c38 43 49
72 49 127 0 35 -6 52 -29 77 -26 29 -35 33 -97 36 -60 3 -76 0 -124 -25z m128
-130 c4 -25 -49 -90 -66 -79 -12 7 -5 74 11 94 16 20 52 10 55 -15z m2 -208
c0 -18 -43 -65 -60 -65 -13 0 -16 34 -5 68 6 18 65 16 65 -3z"/>
<path d="M1110 2732 c-53 -43 -16 -122 56 -122 45 0 47 27 3 32 -63 6 -65 73
-3 73 40 1 39 29 -2 33 -19 2 -39 -4 -54 -16z"/>
<path d="M1250 2692 c0 -64 11 -82 50 -82 39 0 50 18 50 82 0 45 -3 58 -15 58
-12 0 -15 -13 -15 -55 0 -48 -2 -55 -20 -55 -18 0 -20 7 -20 55 0 42 -3 55
-15 55 -12 0 -15 -13 -15 -58z"/>
<path d="M1400 2680 c0 -56 3 -70 15 -70 12 0 15 14 15 70 0 56 -3 70 -15 70
-12 0 -15 -14 -15 -70z"/>
<path d="M1480 2680 l0 -70 35 0 c70 0 102 77 49 119 -15 12 -40 21 -55 21
l-29 0 0 -70z m72 15 c8 -19 8 -28 -2 -40 -23 -28 -40 -18 -40 25 0 47 23 55
42 15z"/>
<path d="M1664 2715 c-7 -19 -21 -51 -28 -70 -14 -33 -14 -35 3 -35 11 0 21 7
25 15 3 8 16 15 30 15 13 0 26 -7 30 -15 5 -13 36 -22 36 -10 0 3 -12 34 -26
70 -30 74 -48 82 -70 30z m36 -30 c0 -8 -4 -15 -10 -15 -5 0 -7 7 -4 15 4 8 8
15 10 15 2 0 4 -7 4 -15z"/>
<path d="M1800 2680 l0 -70 33 0 c39 0 77 34 77 69 0 32 -43 71 -80 71 l-30 0
0 -70z m58 31 c19 -12 11 -65 -10 -69 -15 -3 -18 4 -18 37 0 42 5 47 28 32z"/>
<path d="M1970 2730 c-26 -26 -26 -81 -2 -103 26 -23 75 -21 97 3 59 65 -33
162 -95 100z m70 -25 c17 -20 4 -65 -18 -65 -22 0 -42 19 -42 40 0 35 38 51
60 25z"/>
<path d="M2225 2726 c-30 -31 -32 -55 -4 -90 15 -19 30 -26 54 -26 19 0 37 5
40 10 6 10 -1 14 -47 24 -52 12 -29 82 24 74 15 -2 23 2 23 12 0 27 -61 25
-90 -4z"/>
<path d="M2380 2730 c-26 -26 -26 -81 -2 -103 26 -23 75 -21 97 3 59 65 -33
162 -95 100z m70 -25 c17 -20 4 -65 -18 -65 -22 0 -42 19 -42 40 0 35 38 51
60 25z"/>
<path d="M2546 2738 c-3 -7 -7 -39 -10 -71 -4 -51 -3 -58 12 -55 11 2 18 15
21 38 l3 35 12 -34 c17 -48 30 -48 49 -4 l15 38 1 -37 c1 -29 5 -38 19 -38 15
0 17 7 12 64 -3 36 -8 68 -12 72 -14 13 -36 -5 -43 -35 -9 -40 -18 -39 -34 4
-12 34 -38 47 -45 23z"/>
<path d="M2826 2729 c-54 -42 -15 -124 55 -117 43 4 44 22 2 26 -35 3 -57 30
-47 56 7 18 47 32 62 22 11 -7 24 19 15 28 -13 13 -62 5 -87 -15z"/>
<path d="M2983 2698 c-12 -29 -24 -61 -28 -70 -5 -13 -2 -18 9 -18 9 0 19 7
22 15 4 8 17 15 30 15 14 0 27 -7 30 -15 4 -8 14 -15 24 -15 17 0 17 5 -9 68
-15 37 -34 68 -43 70 -10 2 -22 -15 -35 -50z m47 -19 c0 -5 -4 -9 -10 -9 -5 0
-10 7 -10 16 0 8 5 12 10 9 6 -3 10 -10 10 -16z"/>
<path d="M3120 2680 c0 -56 3 -70 15 -70 10 0 15 10 15 28 l1 27 23 -28 c13
-17 31 -27 41 -25 15 3 15 5 -4 29 -18 23 -19 28 -6 39 34 28 3 70 -51 70
l-34 0 0 -70z m60 25 c0 -8 -7 -15 -15 -15 -8 0 -15 7 -15 15 0 8 7 15 15 15
8 0 15 -7 15 -15z"/>
<path d="M3270 2680 c0 -56 3 -70 15 -70 12 0 15 14 15 70 0 56 -3 70 -15 70
-12 0 -15 -14 -15 -70z"/>
<path d="M3357 2743 c-4 -3 -7 -35 -7 -70 0 -56 2 -63 19 -63 16 0 20 8 23 38
l3 37 23 -37 c37 -60 52 -50 52 32 0 56 -3 70 -15 70 -11 0 -15 -11 -15 -42
l0 -43 -28 42 c-26 41 -41 51 -55 36z"/>
<path d="M3527 2743 c-4 -3 -7 -35 -7 -70 0 -56 2 -63 20 -63 16 0 20 7 20 30
0 23 4 30 20 30 16 0 20 -7 20 -30 0 -20 5 -30 15 -30 12 0 15 14 15 70 0 56
-3 70 -15 70 -10 0 -15 -10 -15 -30 0 -23 -4 -30 -20 -30 -16 0 -20 7 -20 30
0 28 -17 40 -33 23z"/>
<path d="M3700 2730 c-26 -26 -26 -81 -2 -103 26 -23 75 -21 97 3 59 65 -33
162 -95 100z m70 -25 c17 -20 4 -65 -18 -65 -22 0 -42 19 -42 40 0 35 38 51
60 25z"/>
<path d="M675 2343 c2 -32 7 -91 10 -132 18 -247 134 -568 289 -799 249 -370
663 -651 1097 -742 377 -79 780 -32 1127 131 133 62 205 106 325 197 319 244
543 580 642 967 50 196 73 435 42 435 -9 0 -16 -38 -25 -137 -7 -76 -21 -177
-32 -225 -91 -414 -324 -774 -662 -1027 -427 -318 -968 -422 -1495 -285 -515
133 -966 533 -1162 1029 -74 189 -121 407 -121 568 0 70 -2 77 -20 77 -18 0
-19 -5 -15 -57z"/>
</g>
</svg>
