<?xml version="1.0" standalone="no"?>
<!DOCTYPE svg PUBLIC "-//W3C//DTD SVG 20010904//EN"
 "http://www.w3.org/TR/2001/REC-SVG-20010904/DTD/svg10.dtd">
<svg version="1.0" xmlns="http://www.w3.org/2000/svg"
 width="259.000000pt" height="194.000000pt" viewBox="0 0 259.000000 194.000000"
 preserveAspectRatio="xMidYMid meet">

<g transform="translate(0.000000,194.000000) scale(0.100000,-0.100000)"
fill="#000000" stroke="none">
<path d="M0 1705 c0 -235 6 -273 30 -184 6 23 10 54 8 70 -2 23 6 37 44 71
l46 43 5 82 c4 63 10 86 25 101 11 11 23 18 26 15 3 -4 6 3 6 14 0 19 -6 21
-95 22 l-95 2 0 -236z"/>
<path d="M208 1913 c-7 -16 -12 -77 -12 -139 0 -99 3 -114 22 -139 12 -15 22
-34 22 -42 0 -7 7 -16 15 -19 8 -4 13 -9 10 -13 -7 -12 49 -16 112 -8 27 3 36
-1 49 -22 22 -33 41 -45 84 -51 31 -4 38 -1 58 27 12 18 26 33 31 33 24 0 28
-132 6 -184 -9 -20 -13 -42 -9 -48 5 -7 2 -9 -9 -5 -11 4 -17 -2 -22 -24 -4
-16 -10 -27 -15 -24 -11 7 -32 -20 -23 -29 4 -4 0 -4 -10 0 -13 4 -16 2 -11
-9 3 -8 1 -18 -5 -22 -6 -3 -11 -17 -11 -30 0 -13 -10 -31 -22 -41 -18 -13
-19 -15 -4 -10 13 4 17 2 13 -8 -5 -13 41 -30 173 -64 30 -8 24 -9 -38 -9 -48
0 -71 4 -69 11 3 6 -6 12 -19 12 -29 2 -30 -3 -6 -30 9 -11 1 -7 -18 8 -51 43
-109 66 -160 65 l-45 -1 46 -8 c25 -4 60 -15 77 -24 30 -16 56 -48 46 -58 -2
-3 3 -18 12 -34 l16 -29 -6 35 c-6 35 -6 35 10 12 9 -13 17 -34 18 -47 0 -13
5 -23 11 -22 5 1 11 -9 13 -23 2 -14 12 -33 23 -43 10 -10 19 -23 19 -28 0 -6
9 -24 21 -41 12 -16 20 -30 18 -31 -2 -2 -13 -9 -24 -17 -17 -12 -18 -12 -7 0
17 20 15 35 -3 20 -9 -8 -15 -8 -15 -2 0 6 -12 12 -27 14 -20 2 -29 9 -31 26
-4 25 -32 31 -32 5 0 -15 -2 -14 -20 2 -10 9 -19 20 -18 24 2 13 -24 71 -33
71 -5 0 -9 7 -9 16 0 16 -19 15 -64 -2 -9 -3 -16 -1 -16 4 0 6 -16 14 -35 18
-19 3 -38 10 -41 15 -10 16 -75 9 -104 -11 -40 -28 -57 -116 -42 -219 6 -42
14 -110 17 -152 l6 -76 -38 8 c-21 4 -48 11 -60 14 l-23 7 0 -261 0 -261 529
0 529 0 16 48 c10 26 23 67 30 92 27 90 76 210 137 336 62 130 92 174 115 174
7 0 17 6 21 13 14 22 142 129 175 146 42 21 51 46 14 39 -29 -6 -32 -1 -12 21
8 9 26 45 41 81 15 36 36 78 47 93 21 29 18 57 -5 57 -9 0 -17 -15 -20 -36 -3
-20 -16 -45 -29 -56 -13 -11 -23 -24 -23 -29 0 -20 -91 -89 -125 -95 -19 -3
-50 -10 -67 -16 -35 -10 -53 -5 -53 17 0 7 -3 15 -7 18 -5 2 -2 2 6 0 8 -2 22
4 32 13 20 18 26 40 9 29 -5 -3 -12 6 -16 20 -3 14 -11 25 -18 25 -6 0 -4 5 4
10 13 9 13 11 0 20 -10 6 -11 10 -3 10 7 0 12 10 12 23 -1 12 2 42 6 67 5 32
4 41 -4 30 -5 -8 -13 -12 -16 -8 -3 3 1 13 10 21 8 9 15 24 15 35 0 18 -28 52
-44 52 -18 0 -39 -84 -46 -189 -7 -101 -12 -124 -39 -175 -17 -33 -28 -63 -25
-68 17 -27 -63 10 -108 51 l-27 23 -6 -36 c-4 -20 -11 -36 -15 -36 -8 0 -30
45 -30 61 0 6 -18 27 -39 47 -48 45 -71 96 -60 135 4 16 4 38 0 50 -8 22 4 97
18 107 6 4 35 67 36 80 5 40 97 240 110 240 7 0 15 7 19 15 3 8 12 15 21 15 8
0 15 5 15 11 0 8 -16 10 -50 6 -92 -11 -51 10 53 26 56 10 118 22 139 27 45
13 57 39 29 62 -27 21 -27 42 0 69 l21 21 -23 24 c-12 13 -18 24 -13 24 6 0
10 22 10 50 l-1 50 -50 0 -50 -1 28 -24 c15 -14 35 -25 43 -25 19 0 15 -31 -5
-38 -8 -3 -11 -1 -8 4 3 5 -7 10 -21 10 -15 1 -21 -1 -14 -3 6 -3 12 -9 12
-14 0 -5 -11 -3 -25 3 -14 6 -25 17 -25 24 0 7 -14 24 -31 38 l-31 26 -449 0
-449 0 -12 -27z m29 -55 c-3 -7 -5 -2 -5 12 0 14 2 19 5 13 2 -7 2 -19 0 -25z
m70 -285 c29 -31 13 -30 -21 2 -14 13 -26 32 -25 42 0 17 1 16 12 -1 7 -11 22
-30 34 -43z m706 2 c-3 -9 -8 -14 -10 -11 -3 3 -2 9 2 15 9 16 15 13 8 -4z
m-166 -67 c-3 -8 -6 -5 -6 6 -1 11 2 17 5 13 3 -3 4 -12 1 -19z m-90 -90 c-3
-8 -6 -5 -6 6 -1 11 2 17 5 13 3 -3 4 -12 1 -19z m-188 -472 c-3 -3 -11 5 -18
17 -13 21 -12 21 5 5 10 -10 16 -20 13 -22z m991 -16 c0 -5 -5 -10 -11 -10 -5
0 -7 5 -4 10 3 6 8 10 11 10 2 0 4 -4 4 -10z m-868 -42 c23 -26 28 -40 24 -63
-2 -16 -2 -24 1 -17 9 22 47 12 73 -19 14 -17 35 -42 48 -55 12 -14 22 -29 22
-35 0 -5 8 -9 18 -9 9 0 30 -7 46 -15 35 -18 36 -18 36 0 0 11 11 15 38 15 36
0 37 -1 55 -58 23 -75 22 -90 -8 -104 -19 -8 -35 -8 -64 0 -21 7 -61 12 -89
12 -55 0 -63 6 -66 51 -2 29 -38 73 -50 62 -3 -4 -6 3 -6 15 0 13 -10 26 -27
34 -20 10 -27 20 -25 37 2 19 0 20 -12 9 -8 -8 -16 -23 -19 -34 -4 -16 -5 -16
-6 4 0 12 -5 22 -9 22 -8 0 -32 57 -32 74 0 5 7 3 15 -4 18 -15 18 -10 5 24
-11 29 -30 35 -30 9 0 -15 -2 -15 -13 2 -8 11 -17 29 -20 40 -6 16 -3 15 12
-5 l20 -25 7 33 c4 17 11 32 17 32 6 0 23 -15 39 -32z m-182 -128 c0 -11 -7
-20 -15 -20 -27 0 -18 30 13 39 1 1 2 -8 2 -19z m730 -112 c0 -11 -8 -22 -20
-25 -11 -3 -20 -14 -20 -24 0 -11 -4 -19 -8 -19 -5 0 -17 -18 -27 -40 -18 -40
-38 -51 -49 -27 -3 6 -3 0 0 -15 4 -18 2 -28 -5 -28 -6 0 -16 -11 -21 -25 -5
-14 -14 -25 -20 -25 -5 0 -10 -7 -10 -15 0 -8 -4 -15 -9 -15 -5 0 -11 -6 -14
-12 -2 -7 -2 -2 0 10 2 15 0 21 -7 17 -5 -3 -10 -1 -10 4 0 6 6 11 14 11 25 0
38 74 14 83 -7 2 -9 8 -5 13 4 5 12 2 17 -6 12 -20 20 -11 71 90 52 103 48 98
59 80 8 -12 10 -9 10 10 l1 25 19 -24 c11 -13 20 -32 20 -43z"/>
<path d="M682 760 c0 -14 2 -19 5 -12 2 6 2 18 0 25 -3 6 -5 1 -5 -13z"/>
<path d="M2334 1908 c3 -18 8 -52 12 -75 8 -53 24 -56 24 -5 0 20 3 54 6 75 6
35 5 37 -21 37 -25 0 -27 -2 -21 -32z"/>
<path d="M2414 1908 c3 -18 7 -109 10 -203 2 -93 2 -155 0 -137 -3 17 -9 32
-14 32 -5 0 -16 14 -24 32 -19 38 -20 41 -3 32 7 -4 9 -3 4 2 -5 5 -13 9 -18
9 -5 0 -22 15 -38 33 -28 33 -29 34 -85 27 -70 -9 -117 -39 -132 -85 -8 -26
-22 -41 -56 -58 -24 -13 -89 -60 -144 -104 -133 -107 -174 -130 -237 -134 -66
-4 -66 -4 -42 -14 61 -26 153 16 283 129 51 45 114 92 141 105 43 22 50 23 68
11 18 -13 19 -20 12 -60 -5 -26 -11 -51 -14 -56 -4 -5 0 -9 7 -9 9 0 9 -3 -2
-10 -12 -8 -12 -12 -2 -18 9 -6 5 -15 -16 -33 -16 -13 -32 -34 -36 -47 -4 -12
-11 -20 -15 -18 -4 3 -8 -8 -8 -23 0 -28 1 -28 32 -15 17 7 50 13 73 12 23 0
53 7 67 16 22 15 25 15 25 1 0 -9 -7 -18 -15 -21 -8 -4 -15 -12 -15 -19 0 -14
-119 -75 -155 -80 -11 -2 -23 -4 -26 -4 -4 -1 -10 -22 -14 -48 -4 -27 -11 -55
-16 -65 -5 -9 -9 -53 -10 -97 -1 -54 -5 -79 -12 -74 -6 4 -8 0 -4 -10 3 -9 1
-22 -6 -29 -21 -23 -57 -102 -57 -125 0 -13 -5 -23 -11 -23 -6 0 -9 -9 -6 -20
3 -11 2 -18 -3 -15 -12 7 -36 -35 -53 -91 -30 -98 -74 -157 -100 -135 -11 9
-17 8 -27 -4 -7 -8 -18 -15 -26 -15 -13 0 -64 59 -64 76 -1 11 -36 54 -44 54
-10 0 -65 64 -66 77 0 6 -10 9 -22 7 -13 -2 -17 -2 -10 2 18 8 15 24 -5 24
-14 0 -14 3 3 22 l19 21 -33 -19 c-49 -28 -163 -137 -134 -129 18 5 22 2 22
-14 0 -20 -8 -25 -41 -22 -9 1 -26 -18 -41 -46 -35 -64 -98 -248 -103 -298 -4
-37 -3 -38 11 -21 14 19 14 19 14 -1 0 -26 -26 -50 -32 -31 -3 7 -4 -3 -4 -23
1 -28 5 -35 17 -32 11 3 15 12 12 26 -4 18 -3 19 6 7 9 -13 11 -13 11 3 0 9 4
17 9 17 5 0 16 3 25 6 13 5 15 1 9 -27 -3 -19 -10 -37 -16 -40 -5 -4 -5 -9 1
-13 14 -9 19 1 27 56 4 26 11 46 15 43 4 -2 18 4 30 15 13 11 20 20 15 20 -4
0 -2 7 5 15 19 23 5 29 -24 9 -39 -25 -41 -12 -4 30 35 40 53 46 45 17 -3 -13
1 -21 14 -24 11 -3 17 -1 13 4 -3 5 1 9 9 9 8 0 27 16 41 35 15 19 32 35 39
35 7 0 37 -28 67 -63 30 -34 46 -55 35 -48 -11 8 1 -6 27 -32 26 -26 52 -47
58 -47 6 0 9 -4 6 -9 -3 -5 8 -14 25 -20 17 -6 28 -15 25 -20 -3 -5 1 -12 10
-15 8 -3 12 -2 9 4 -3 6 -2 10 4 10 5 0 13 -5 16 -10 3 -5 23 -10 43 -9 34 1
35 2 12 9 -22 7 -20 8 12 7 27 -1 34 -4 27 -13 -7 -8 -2 -10 18 -7 16 3 35 7
43 10 8 4 18 5 23 5 4 -1 6 1 5 5 -1 5 13 53 31 108 66 204 91 325 125 600 8
61 24 163 36 228 22 115 23 117 55 133 19 8 36 22 39 30 3 8 22 21 43 29 21 8
47 29 58 47 11 17 29 46 41 64 11 19 23 37 27 40 13 13 -15 -61 -29 -77 -8 -8
-14 -20 -14 -25 0 -4 7 1 15 13 8 11 26 24 40 27 14 4 25 11 25 17 0 6 4 8 9
5 5 -4 8 -279 7 -671 l-3 -665 55 0 c46 0 53 2 48 16 -10 26 15 84 36 84 17 0
18 14 18 210 0 180 -2 210 -15 210 -8 0 -15 7 -15 15 0 8 7 15 15 15 13 0 15
38 14 283 0 281 -10 336 -26 152 l-7 -90 -7 150 c-3 83 -3 182 1 220 l7 70 2
-57 c0 -32 5 -58 10 -58 6 0 12 -19 14 -42 2 -24 4 138 5 360 l2 402 -91 0
-91 0 6 -32z m-59 -336 c-3 -3 -11 0 -18 7 -9 10 -8 11 6 5 10 -3 15 -9 12
-12z m-82 -9 c-7 -2 -21 -2 -30 0 -10 3 -4 5 12 5 17 0 24 -2 18 -5z m-83 -13
c0 -5 -2 -10 -4 -10 -3 0 -8 5 -11 10 -3 6 -1 10 4 10 6 0 11 -4 11 -10z m139
-4 c10 -12 8 -13 -9 -9 -25 7 -37 23 -17 23 8 0 20 -6 26 -14z m-39 -53 c26
-33 28 -38 13 -41 -10 -1 -36 1 -58 6 -36 7 -40 11 -43 40 -3 30 -1 32 27 32
22 0 37 -9 61 -37z m-893 -960 c-3 -10 -5 -2 -5 17 0 19 2 27 5 18 2 -10 2
-26 0 -35z"/>
<path d="M161 1724 c0 -11 3 -14 6 -6 3 7 2 16 -1 19 -3 4 -6 -2 -5 -13z"/>
<path d="M1556 1373 c-9 -22 12 -43 23 -24 5 7 14 10 21 6 8 -5 7 -1 -2 14
l-13 21 -13 -23 -13 -22 6 23 c7 26 0 30 -9 5z"/>
<path d="M1501 1319 c-6 -18 -10 -33 -9 -34 6 -5 67 -35 71 -35 3 0 8 11 11
24 3 13 8 31 12 39 3 9 -3 16 -18 19 -13 3 -30 9 -39 12 -13 5 -19 -1 -28 -25z
m49 -3 c0 -6 -5 -18 -11 -26 -9 -12 -10 -12 -5 4 4 10 1 25 -5 32 -10 12 -9
13 5 8 9 -3 16 -11 16 -18z"/>
<path d="M1584 1209 c3 -17 6 -39 6 -48 1 -14 2 -14 11 2 5 9 7 22 3 29 -4 7
-3 8 4 4 17 -10 15 13 -2 30 -22 22 -29 17 -22 -17z"/>
<path d="M972 1185 c-6 -11 -12 -15 -12 -10 0 6 -5 3 -10 -5 -17 -27 -11 -55
18 -80 16 -14 31 -32 34 -40 3 -8 9 -12 13 -8 6 6 -4 65 -25 138 -6 24 -7 24
-18 5z"/>
<path d="M1040 1020 c0 -5 5 -10 11 -10 5 0 7 5 4 10 -3 6 -8 10 -11 10 -2 0
-4 -4 -4 -10z"/>
<path d="M427 999 c7 -7 15 -10 18 -7 3 3 -2 9 -12 12 -14 6 -15 5 -6 -5z"/>
<path d="M1350 992 c0 -5 7 -15 15 -22 8 -7 15 -8 15 -2 0 5 -7 15 -15 22 -8
7 -15 8 -15 2z"/>
<path d="M2361 48 c-1 -27 4 -48 9 -48 12 0 12 34 0 70 -7 20 -8 16 -9 -22z"/>
<path d="M1150 40 c0 -5 -8 -10 -17 -11 -14 0 -15 -2 -3 -6 8 -3 18 -11 22
-17 4 -6 8 1 8 17 0 15 -2 27 -5 27 -3 0 -5 -4 -5 -10z"/>
<path d="M1350 10 c-11 -7 -5 -10 23 -10 23 0 36 4 32 10 -8 13 -35 13 -55 0z"/>
</g>
</svg>
